HIERARCHY
ROOT Hips
{
	OFFSET 0.000000 35.082581 0.000000
	CHANNELS 6 Xposition Yposition Zposition Xrotation Yrotation Zrotation 
	JOINT Spine
	{
		OFFSET 0.000000 6.876099 0.125700
		CHANNELS 3 Xrotation Yrotation Zrotation
		JOINT Spine1
		{
			OFFSET 0.000000 5.730043 0.104720
			CHANNELS 3 Xrotation Yrotation Zrotation
			JOINT Spine1_split
			{
				OFFSET 0.000000 5.730043 0.104720
				CHANNELS 3 Xrotation Yrotation Zrotation
				JOINT Spine2
				{
					OFFSET 0.000000 5.730043 0.104720
					CHANNELS 3 Xrotation Yrotation Zrotation
					JOINT Neck
					{
						OFFSET 0.000000 10.314075 0.188496
						CHANNELS 3 Xrotation Yrotation Zrotation
						JOINT Head
						{
							OFFSET 0.000000 7.643700 -2.377400
							CHANNELS 3 Xrotation Yrotation Zrotation
							JOINT HeadTop_End
							{
								OFFSET 0.000000 43.788605 -13.619600
								CHANNELS 3 Xrotation Yrotation Zrotation
								End Site
								{
									OFFSET 0.000000 0.000000 0.000000
								}
							}
						}
					}
					JOINT LeftShoulder
					{
						OFFSET 2.196100 4.412489 0.087492
						CHANNELS 3 Xrotation Yrotation Zrotation
						JOINT LeftShoulder_split
						{
							OFFSET 2.196100 4.412489 0.087492
							CHANNELS 3 Xrotation Yrotation Zrotation
							JOINT LeftArm
							{
								OFFSET 8.771219 -2.981674 -0.026999
								CHANNELS 3 Xrotation Yrotation Zrotation
								JOINT LeftForeArm
								{
									OFFSET 8.512804 0.000000 -0.000000
									CHANNELS 3 Xrotation Yrotation Zrotation
									JOINT LeftHand
									{
										OFFSET 18.484802 0.000000 -0.000000
										CHANNELS 3 Xrotation Yrotation Zrotation
										JOINT LeftHandThumb1
										{
											OFFSET 2.499420 -1.158070 2.653252
											CHANNELS 3 Xrotation Yrotation Zrotation
											JOINT LeftHandThumb2
											{
												OFFSET 2.370079 -1.368366 1.368366
												CHANNELS 3 Xrotation Yrotation Zrotation
												JOINT LeftHandThumb3
												{
													OFFSET 2.676727 -1.545410 1.545409
													CHANNELS 3 Xrotation Yrotation Zrotation
													JOINT LeftHandThumb4
													{
														OFFSET 1.692226 -0.977005 0.977007
														CHANNELS 3 Xrotation Yrotation Zrotation
														End Site
														{
															OFFSET 0.000000 0.000000 0.000000
														}
													}
												}
											}
										}
										JOINT LeftHandIndex1
										{
											OFFSET 7.924831 -0.457527 2.345128
											CHANNELS 3 Xrotation Yrotation Zrotation
											JOINT LeftHandIndex2
											{
												OFFSET 3.643303 0.000000 0.000000
												CHANNELS 3 Xrotation Yrotation Zrotation
												JOINT LeftHandIndex3
												{
													OFFSET 3.810799 0.000000 0.000000
													CHANNELS 3 Xrotation Yrotation Zrotation
													JOINT LeftHandIndex4
													{
														OFFSET 2.403702 0.000000 0.000000
														CHANNELS 3 Xrotation Yrotation Zrotation
														End Site
														{
															OFFSET 0.000000 0.000000 0.000000
														}
													}
												}
											}
										}
										JOINT LeftHandMiddle1
										{
											OFFSET 8.563995 0.000000 -0.000000
											CHANNELS 3 Xrotation Yrotation Zrotation
											JOINT LeftHandMiddle2
											{
												OFFSET 3.861618 0.000000 0.000000
												CHANNELS 3 Xrotation Yrotation Zrotation
												JOINT LeftHandMiddle3
												{
													OFFSET 3.701603 0.000000 0.000000
													CHANNELS 3 Xrotation Yrotation Zrotation
													JOINT LeftHandMiddle4
													{
														OFFSET 2.322544 0.000000 0.000000
														CHANNELS 3 Xrotation Yrotation Zrotation
														End Site
														{
															OFFSET 0.000000 0.000000 0.000000
														}
													}
												}
											}
										}
										JOINT LeftHandRing1
										{
											OFFSET 8.426460 -0.424637 -3.286992
											CHANNELS 3 Xrotation Yrotation Zrotation
											JOINT LeftHandRing2
											{
												OFFSET 3.126408 0.000000 0.000000
												CHANNELS 3 Xrotation Yrotation Zrotation
												JOINT LeftHandRing3
												{
													OFFSET 3.085026 0.000000 0.000000
													CHANNELS 3 Xrotation Yrotation Zrotation
													JOINT LeftHandRing4
													{
														OFFSET 1.644005 0.000000 0.000000
														CHANNELS 3 Xrotation Yrotation Zrotation
														End Site
														{
															OFFSET 0.000000 0.000000 0.000000
														}
													}
												}
											}
										}
									}
								}
							}
						}
					}
					JOINT RightShoulder
					{
						OFFSET -2.196100 4.412496 0.070690
						CHANNELS 3 Xrotation Yrotation Zrotation
						JOINT RightShoulder_split
						{
							OFFSET -2.196100 4.412496 0.070690
							CHANNELS 3 Xrotation Yrotation Zrotation
							JOINT RightArm
							{
								OFFSET -8.771282 -2.981682 -0.094208
								CHANNELS 3 Xrotation Yrotation Zrotation
								JOINT RightForeArm
								{
									OFFSET -8.494598 0.000000 0.000000
									CHANNELS 3 Xrotation Yrotation Zrotation
									JOINT RightHand
									{
										OFFSET -18.483803 0.000000 0.000001
										CHANNELS 3 Xrotation Yrotation Zrotation
										JOINT RightHandThumb1
										{
											OFFSET -2.527351 -1.008072 2.575253
											CHANNELS 3 Xrotation Yrotation Zrotation
											JOINT RightHandThumb2
											{
												OFFSET -2.321518 -1.340328 1.340329
												CHANNELS 3 Xrotation Yrotation Zrotation
												JOINT RightHandThumb3
												{
													OFFSET -2.657753 -1.534454 1.534455
													CHANNELS 3 Xrotation Yrotation Zrotation
													JOINT RightHandThumb4
													{
														OFFSET -1.807510 -1.043568 1.043567
														CHANNELS 3 Xrotation Yrotation Zrotation
														End Site
														{
															OFFSET 0.000000 0.000000 0.000000
														}
													}
												}
											}
										}
										JOINT RightHandIndex1
										{
											OFFSET -8.811420 0.015533 2.887987
											CHANNELS 3 Xrotation Yrotation Zrotation
											JOINT RightHandIndex2
											{
												OFFSET -3.537502 0.000000 0.000000
												CHANNELS 3 Xrotation Yrotation Zrotation
												JOINT RightHandIndex3
												{
													OFFSET -3.356201 0.000000 0.000000
													CHANNELS 3 Xrotation Yrotation Zrotation
													JOINT RightHandIndex4
													{
														OFFSET -1.933098 0.000000 0.000000
														CHANNELS 3 Xrotation Yrotation Zrotation
														End Site
														{
															OFFSET 0.000000 0.000000 0.000000
														}
													}
												}
											}
										}
										JOINT RightHandMiddle1
										{
											OFFSET -8.178135 0.000000 0.000000
											CHANNELS 3 Xrotation Yrotation Zrotation
											JOINT RightHandMiddle2
											{
												OFFSET -3.901302 0.000000 0.000000
												CHANNELS 3 Xrotation Yrotation Zrotation
												JOINT RightHandMiddle3
												{
													OFFSET -3.909599 0.000000 0.000000
													CHANNELS 3 Xrotation Yrotation Zrotation
													JOINT RightHandMiddle4
													{
														OFFSET -2.376003 0.000000 0.000000
														CHANNELS 3 Xrotation Yrotation Zrotation
														End Site
														{
															OFFSET 0.000000 0.000000 0.000000
														}
													}
												}
											}
										}
										JOINT RightHandRing1
										{
											OFFSET -7.559013 0.014137 -2.865403
											CHANNELS 3 Xrotation Yrotation Zrotation
											JOINT RightHandRing2
											{
												OFFSET -3.449306 0.000000 0.000000
												CHANNELS 3 Xrotation Yrotation Zrotation
												JOINT RightHandRing3
												{
													OFFSET -3.362106 0.000000 0.000000
													CHANNELS 3 Xrotation Yrotation Zrotation
													JOINT RightHandRing4
													{
														OFFSET -2.076401 0.000000 0.000000
														CHANNELS 3 Xrotation Yrotation Zrotation
														End Site
														{
															OFFSET 0.000000 0.000000 0.000000
														}
													}
												}
											}
										}
									}
								}
							}
						}
					}
				}
			}
		}
	}
	JOINT LeftUpLeg
	{
		OFFSET 10.205400 -3.823500 0.155100
		CHANNELS 3 Xrotation Yrotation Zrotation
		JOINT LeftLeg
		{
			OFFSET 0.708757 -12.982077 0.567790
			CHANNELS 3 Xrotation Yrotation Zrotation
			JOINT LeftFoot
			{
				OFFSET -0.708756 -10.717838 -2.184338
				CHANNELS 3 Xrotation Yrotation Zrotation
				JOINT LeftToeBase
				{
					OFFSET 0.108149 -7.191104 7.560241
					CHANNELS 3 Xrotation Yrotation Zrotation
					JOINT LeftToe_End
					{
						OFFSET 0.070230 0.081724 4.490308
						CHANNELS 3 Xrotation Yrotation Zrotation
						End Site
						{
							OFFSET 0.000000 0.000000 0.000000
						}
					}
				}
			}
		}
	}
	JOINT RightUpLeg
	{
		OFFSET -10.205400 -3.823500 0.005500
		CHANNELS 3 Xrotation Yrotation Zrotation
		JOINT RightLeg
		{
			OFFSET -0.708756 -12.982134 0.610632
			CHANNELS 3 Xrotation Yrotation Zrotation
			JOINT RightFoot
			{
				OFFSET 0.708754 -10.717769 -1.945823
				CHANNELS 3 Xrotation Yrotation Zrotation
				JOINT RightToeBase
				{
					OFFSET -0.108140 -7.191069 7.372968
					CHANNELS 3 Xrotation Yrotation Zrotation
					JOINT RightToe_End
					{
						OFFSET -0.070227 0.081735 4.479403
						CHANNELS 3 Xrotation Yrotation Zrotation
						End Site
						{
							OFFSET 0.000000 0.000000 0.000000
						}
					}
				}
			}
		}
	}
}
MOTION
Frames: 6
Frame Time: 0.016667
-1.420347 30.242760 -8.552458 15.826737 -4.586864 1.004377 0.394985 1.257812 -2.876177 0.636433 1.821085 -2.318890 0.000000 0.000000 0.000000 0.638266 1.823742 -2.316336 -1.472516 0.099772 3.009345 -0.377459 5.512137 -4.336853 0.000003 0.000001 0.000000 0.360187 2.455133 -3.076648 0.000000 0.000000 0.000000 -42.779715 -18.686481 -73.901199 0.000007 -32.101527 -0.000007 32.955601 -38.789249 21.774172 -1.540043 3.690156 6.142348 3.939047 7.948697 0.746797 -0.579459 1.574996 2.538725 -0.000000 -0.000000 0.000001 0.000003 -0.000005 0.000006 -0.000012 -0.000002 0.000003 0.000005 -0.000001 -0.000003 0.000000 -0.000000 -0.000000 0.000004 -0.001938 0.015986 -0.000013 0.001933 -0.015991 0.000006 0.000005 0.000000 0.000002 0.000000 -0.000001 -0.000005 -0.000011 -0.000005 0.000010 0.000010 -0.000021 -0.000003 0.000005 0.000002 0.000000 -0.000001 -0.000001 -0.359840 -8.426885 9.978082 0.000000 0.000000 0.000000 -7.597803 0.652479 60.625456 0.000017 73.807816 -0.000033 34.281170 -23.697061 38.665148 -1.849253 -3.581792 -6.586136 4.637199 -8.634135 -0.225412 -1.273755 0.137309 -2.094873 0.000002 0.000005 0.000004 -0.000003 0.000002 -0.000000 0.000003 -0.000002 0.000013 -0.000013 -0.000002 0.000006 -0.000001 0.000000 -0.000000 0.000005 0.000002 -0.000000 -0.000009 -0.000002 0.000002 -0.000002 0.000003 -0.000003 -0.000001 -0.000001 0.000000 -0.000004 -0.000008 0.000002 0.000007 0.000007 0.000002 -0.000001 -0.000003 0.000001 0.000002 0.000001 -0.000001 -32.382501 14.210979 -17.575485 48.425266 14.653744 -9.073360 -40.421893 24.912768 20.164122 -5.248545 -0.000008 0.000092 -0.000000 -0.000000 -0.000000 27.279188 -2.629003 13.982533 -12.858010 -9.962302 -4.176852 -24.666105 -15.581362 -2.067115 -11.056398 0.000006 0.000003 -0.000000 -0.000000 -0.000000 
-1.380216 30.086521 -8.709083 15.942527 -7.364324 0.954171 0.508136 1.448468 -2.707139 0.887026 2.339013 -2.487204 0.000000 0.000000 0.000000 0.888433 2.341320 -2.484547 -1.837077 0.243476 3.123046 -2.094605 6.419597 -4.540644 -0.000000 0.000001 -0.000001 0.374453 2.421723 -3.266033 0.000000 0.000000 0.000000 -39.851224 -14.727720 -72.049712 0.000013 -22.743458 0.000003 32.115228 -41.481385 24.235944 -1.540052 3.690195 6.142351 3.939050 7.948694 0.746800 -0.579452 1.574997 2.538727 0.000000 0.000003 0.000005 -0.000005 0.000005 -0.000001 -0.000003 -0.000002 0.000003 -0.000001 -0.000001 -0.000003 0.000005 -0.000000 0.000000 -0.000007 -0.001924 0.015981 -0.000009 0.001932 -0.015991 0.000007 0.000004 0.000002 0.000003 -0.000000 -0.000000 -0.000007 0.000005 -0.000018 0.000010 0.000011 -0.000021 -0.000003 0.000006 0.000001 -0.000000 0.000000 -0.000000 -0.352597 -8.501465 9.730679 0.000000 0.000000 0.000000 -12.738348 4.865300 63.264088 0.000076 74.618362 -0.000079 16.032884 -23.458655 18.092920 -1.849263 -3.581783 -6.586136 4.637201 -8.634139 -0.225411 -1.273760 0.137305 -2.094875 0.000002 0.000004 0.000000 0.000004 0.000006 -0.000013 0.000003 -0.000008 0.000017 -0.000007 -0.000000 0.000003 0.000001 0.000000 -0.000000 -0.000000 0.000005 -0.000006 -0.000008 -0.000003 0.000002 -0.000000 0.000005 -0.000004 0.000001 0.000000 -0.000000 0.000003 0.000005 -0.000006 0.000011 0.000009 0.000002 -0.000002 -0.000008 -0.000001 -0.000002 -0.000003 0.000002 -31.851464 15.066547 -16.421226 49.291976 15.098620 -8.966480 -43.318552 24.295731 19.753588 -3.874692 0.000024 0.000001 -0.000000 -0.000001 -0.000000 26.669799 -2.487685 12.962842 -12.995221 -9.741161 -4.789233 -25.349422 -13.084703 -0.270318 -8.445789 0.000020 0.000004 0.000000 -0.000000 -0.000000 
-1.357425 30.180695 -8.699805 16.134503 -9.960977 0.654552 0.596735 1.573368 -2.538860 1.073561 2.781571 -2.534679 0.000000 0.000000 0.000000 1.074973 2.783871 -2.531567 -2.112484 0.371918 3.318561 -3.583596 7.337828 -4.619422 -0.000000 0.000000 -0.000001 0.401726 2.230155 -3.311915 0.000000 0.000000 0.000000 -35.619177 -10.456986 -70.485688 -0.000001 -15.000195 -0.000019 29.764773 -42.497434 25.442132 -1.546137 3.447764 6.213072 3.939041 7.948698 0.746804 -0.579460 1.575000 2.538723 -0.000003 0.000000 -0.000002 0.000019 -0.012617 0.104575 -0.000008 -0.000001 0.000003 0.000004 -0.000001 -0.000003 0.000003 -0.000001 0.000000 0.000017 -0.014547 0.120555 -0.000006 0.001931 -0.015991 0.000004 0.000005 0.000002 0.000002 0.000001 -0.000001 0.000013 -0.012617 0.104573 0.000015 0.000010 -0.000020 -0.000002 0.000006 0.000002 -0.000002 0.000001 0.000000 -0.356445 -8.608828 9.558918 0.000000 0.000000 0.000000 -16.313094 8.187879 64.953549 0.000072 75.469028 -0.000073 5.685411 -18.653453 6.996125 -1.849253 -3.581790 -6.586131 4.637202 -8.634139 -0.225413 -1.273764 0.137305 -2.094878 0.000004 -0.000003 -0.000003 0.000002 0.000007 -0.000001 0.000003 -0.000004 0.000015 -0.000012 0.000001 0.000005 0.000001 0.000001 -0.000000 0.000003 0.000002 -0.000009 -0.000005 -0.000004 0.000002 0.000001 0.000002 -0.000004 -0.000001 0.000002 -0.000003 0.000011 0.000000 -0.000001 0.000013 0.000007 0.000001 -0.000004 -0.000001 -0.000002 0.000002 -0.000001 0.000002 -31.353113 15.590057 -14.892322 49.436797 15.085581 -8.961440 -44.680823 24.171223 19.241652 -4.435241 -0.000018 0.000010 -0.000000 -0.000002 0.000000 25.599807 -2.523621 11.710516 -13.001137 -9.805512 -5.247020 -23.674774 -10.322660 2.957089 -9.040531 -0.000013 0.000005 -0.000000 -0.000000 -0.000000 
-1.332314 30.521595 -8.561234 16.338164 -12.150913 0.300949 0.672995 1.626717 -2.562625 1.197264 3.115615 -2.517049 0.000000 0.000000 0.000000 1.200316 3.118347 -2.512249 -2.270871 0.460011 3.641766 -4.724757 8.186670 -4.521796 -0.000000 0.000000 0.000000 0.438875 1.963095 -3.304498 0.000000 0.000000 0.000000 -30.625086 -5.983798 -69.424536 -0.000007 -8.498768 -0.000013 26.865924 -42.479347 25.958807 -1.548699 3.336550 6.245477 3.939044 7.948692 0.746797 -0.579454 1.574992 2.538725 -0.000005 -0.000002 0.000002 0.000013 -0.018390 0.152533 -0.000005 -0.000001 0.000003 0.000004 0.000001 -0.000003 0.000001 0.000003 -0.000000 0.000026 -0.020329 0.168521 -0.000008 0.001934 -0.015991 0.000004 0.000004 -0.000000 0.000002 0.000001 -0.000001 0.000014 -0.018398 0.152529 0.000012 0.000008 -0.000020 0.000002 0.000007 -0.000002 -0.000003 -0.000001 0.000001 -0.371556 -8.742231 9.454239 0.000000 0.000000 0.000000 -18.557113 10.858344 65.882762 0.000001 76.259663 0.000015 0.738473 -13.475851 2.340471 -1.849267 -3.581782 -6.586126 4.637197 -8.634133 -0.225410 -1.273757 0.137306 -2.094880 0.000002 0.000003 -0.000002 0.000003 -0.000003 -0.000002 0.000005 -0.000004 0.000014 -0.000009 -0.000004 0.000004 -0.000000 -0.000002 -0.000000 0.000015 -0.000005 0.000007 -0.000008 -0.000003 0.000003 0.000002 0.000005 -0.000003 -0.000001 0.000000 -0.000000 0.000000 -0.000001 0.000004 0.000010 0.000011 0.000001 -0.000002 -0.000006 0.000002 -0.000000 -0.000000 0.000001 -30.859266 15.581383 -13.328686 48.644443 14.727537 -9.026203 -44.162948 24.413060 18.679693 -4.882688 0.000003 -0.000004 0.000000 -0.000001 -0.000000 21.734862 -3.162499 10.054426 -7.547023 -10.043781 -5.273455 -22.831548 -7.822550 6.981122 -12.232341 0.000004 -0.000004 -0.000000 0.000000 0.000000 
-1.288393 31.077679 -8.331652 16.433737 -13.739886 0.083221 0.765255 1.600013 -2.905538 1.303637 3.309700 -2.511668 0.000000 0.000000 0.000000 1.310983 3.313109 -2.503511 -2.314948 0.491259 4.105114 -5.464780 8.897116 -4.258377 -0.000000 -0.000000 0.000001 0.488437 1.639135 -3.277330 0.000000 0.000000 0.000000 -24.780638 -1.410051 -68.937823 -0.000001 -3.557076 0.000008 23.744096 -41.161920 25.880914 -1.549429 3.302504 6.255419 3.939051 7.948695 0.746797 -0.579456 1.574995 2.538726 -0.000002 0.000002 0.000001 0.000046 -0.020168 0.167214 -0.000008 -0.000001 0.000004 0.000003 -0.000001 -0.000001 0.000001 -0.000001 0.000001 0.000041 -0.022099 0.183204 -0.000009 0.001937 -0.015990 0.000004 0.000002 0.000003 0.000002 -0.000001 0.000000 0.000038 -0.020167 0.167218 0.000011 0.000017 -0.000020 -0.000000 0.000005 0.000003 -0.000001 0.000005 -0.000002 -0.402121 -8.907263 9.436754 0.000000 0.000000 0.000000 -19.021401 12.781219 65.711939 0.000079 76.906304 -0.000078 0.365504 -9.833994 3.270736 -1.849249 -3.581788 -6.586148 4.637197 -8.634138 -0.225413 -1.273755 0.137301 -2.094874 0.000003 -0.000001 -0.000002 0.000004 0.000007 -0.000003 0.000008 -0.000006 0.000015 -0.000009 -0.000003 0.000004 0.000001 0.000001 -0.000000 0.000008 0.000003 0.000003 -0.000004 0.000001 0.000002 0.000002 0.000007 -0.000004 0.000001 0.000001 0.000000 0.000010 0.000007 0.000002 0.000008 0.000011 0.000002 -0.000004 -0.000000 0.000001 -0.000001 -0.000000 -0.000000 -30.096119 14.871694 -12.017142 46.709594 14.227480 -9.115237 -41.643643 24.830033 17.930888 -6.088701 0.000006 -0.000002 -0.000000 -0.000003 0.000000 17.414928 -3.978758 8.090072 -1.492042 -10.210863 -4.448372 -21.158623 -4.920645 9.252701 -16.719803 0.000017 0.000003 -0.000000 0.000000 -0.000000 
-1.242266 31.777988 -8.054070 16.338555 -14.642117 0.160795 0.899593 1.489199 -3.632026 1.448616 3.343142 -2.596305 0.000000 0.000000 0.000000 1.463447 3.347110 -2.583327 -2.278250 0.462124 4.686074 -5.802240 9.438938 -3.905276 -0.000000 0.000000 -0.000000 0.550386 1.289055 -3.266854 0.000000 0.000000 0.000000 -18.156359 3.122038 -69.079577 0.000004 -0.302484 0.000001 20.996321 -38.427577 25.294086 -1.548558 3.342304 6.243809 3.939044 7.948697 0.746797 -0.579463 1.574998 2.538723 -0.000002 -0.000004 0.000001 0.000023 -0.018107 0.150044 -0.000007 0.000001 0.000003 0.000003 0.000001 -0.000004 0.000000 -0.000001 -0.000001 0.000035 -0.020041 0.166023 -0.000010 0.001936 -0.015990 0.000002 0.000005 0.000001 0.000000 -0.000001 -0.000000 0.000018 -0.018108 0.150041 0.000009 0.000012 -0.000019 0.000000 0.000008 0.000001 0.000003 -0.000003 0.000001 -0.449927 -9.102505 9.515460 0.000000 0.000000 0.000000 -17.584826 13.827220 64.327213 0.000019 77.289799 -0.000022 3.563889 -7.674575 8.423104 -1.849258 -3.581787 -6.586157 4.637195 -8.634132 -0.225411 -1.273763 0.137301 -2.094876 0.000003 0.000000 -0.000000 -0.000000 0.000010 -0.000013 0.000008 -0.000003 0.000014 -0.000009 -0.000006 0.000004 -0.000001 -0.000001 0.000001 -0.000006 0.000011 -0.000009 -0.000007 -0.000001 0.000003 0.000003 0.000001 -0.000003 0.000000 0.000000 -0.000000 0.000002 0.000006 0.000000 0.000010 0.000011 0.000001 0.000002 -0.000003 0.000000 0.000001 -0.000001 0.000000 -28.950638 13.390071 -10.999334 43.833477 13.684691 -9.215316 -37.325631 25.362722 16.749533 -8.733623 -0.000021 0.000000 0.000000 0.000000 0.000000 12.514798 -5.046839 5.862413 5.667953 -8.529216 -3.485212 -18.827835 -3.246390 9.790936 -22.148381 0.000001 0.000003 0.000001 0.000002 0.000000 
